<svg xmlns="http://www.w3.org/2000/svg" viewBox="0 0 100 100" width="64" height="64"><rect width="100" height="100" fill="#5bf591"/><path d="M28.760 62L19.760 62L19.760 18.200L34.700 18.200Q39.320 18.200 42.770 19.940Q46.220 21.680 48.110 24.800Q50.000 27.920 50.000 32.120L50.000 32.120Q50.000 36.260 48.080 39.410Q46.160 42.560 42.740 44.300Q39.320 46.040 34.700 46.040L34.700 46.040L28.760 46.040L28.760 62ZM28.760 26L28.760 38.240L34.700 38.240Q37.580 38.240 39.290 36.500Q41 34.760 41 32.120L41 32.120Q41 29.480 39.290 27.740Q37.580 26 34.700 26L34.700 26L28.760 26Z M61.100 62L52.100 62L52.100 18.200L61.100 18.200L61.100 35.360L65.300 35.360L72.620 18.200L82.340 18.200L73.220 38.900L82.700 62L72.860 62L65.360 43.220L61.100 43.220L61.100 62Z" fill="#0b0f0c"/></svg>